/* XPM */
static char *cc4a51c533f7479c8b47f13bb1d11de8[] = {
/* columns rows colors chars-per-pixel */
"32 32 90 1 ",
"  c None",
". c #67696B",
"X c #68686D",
"o c #696A6C",
"O c #696B6D",
"+ c #6A6B6D",
"@ c #68686E",
"# c #69696E",
"$ c #6A6B6E",
"% c #6A6C6D",
"& c #6A6C6E",
"* c #6B6C6E",
"= c #6B6C6F",
"- c #6B6D6F",
"; c #6C6D6F",
": c #6C6D70",
"> c #6C6E70",
", c #6D6E70",
"< c #6D6F71",
"1 c #6F7173",
"2 c #707274",
"3 c #737577",
"4 c #757678",
"5 c #757679",
"6 c #74757A",
"7 c #76777A",
"8 c #76787A",
"9 c #77797B",
"0 c #797B7D",
"q c #7A7C7E",
"w c #7B7C7E",
"e c #7C7D7F",
"r c #85C334",
"t c #87C437",
"y c #88C438",
"u c #88C439",
"i c #89C539",
"p c #89C53A",
"a c #89C53B",
"s c #8AC43A",
"d c #8AC53B",
"f c #8AC53C",
"g c #8AC53D",
"h c #8BC53D",
"j c #8AC63D",
"k c #8BC63D",
"l c #8BC63E",
"z c #8CC63E",
"x c #8CC63F",
"c c #8CC640",
"v c #8DC740",
"b c #8DC741",
"n c #8EC743",
"m c #8FC743",
"M c #8FC844",
"N c #8FC845",
"B c #91C847",
"V c #92C949",
"C c #93C94A",
"Z c #94CA4C",
"A c #95CA4D",
"S c #95CA4E",
"D c #96CA50",
"F c #97CB51",
"G c #98CB52",
"H c #99CC55",
"J c #9ACC56",
"K c #9CCD59",
"L c #9DCE5A",
"P c #9ECOS5C",
"I c #9DCE5C",
"U c #9ECE5D",
"Y c #A2D064",
"T c #A5D168",
"R c #A7D26B",
"E c #A8D36D",
"W c #B1D77C",
"Q c #7D7E82",
"! c #7E7F82",
"~ c #7E8082",
"^ c #7F8082",
"/ c #808284",
"( c #818286",
") c #828486",
"_ c #838587",
"` c #858789",
"' c #8C8E90",
"] c #8F9092",
"[ c #919395",
"{ c #B3D980",
/* pixels */
"                                ",
"                                ",
"                                ",
"                                ",
"            UAb  6~             ",
"          Afffy  $-:6           ",
"        Ujfxffy  $::;-~         ",
"       EyxffBU   Q3:;1o_        ",
"      {rbfb         1->.[       ",
"      yxyA           0->-       ",
"     GyfC             9-$w      ",
"     fby               $>$      ",
"    RyfG               w-$`     ",
"    FffL               '$-9     ",
"    MfbffbxxxxfJ        $;1     ",
"    bxxxbfxxxxfJ        -11     ",
"    BxxxfbbbfbfJ        -;1     ",
"    AfyU               '$-9     ",
"    RyfF               w-$_     ",
"     yby               $>-      ",
"     JyfC             9-$9      ",
"      yxyG           6-;$       ",
"      WtbyM         2-;-]       ",
"       LybffCU   (3->1-6        ",
"        Yffbfyy  X>>--(         ",
"          Cfyxy  $-;6           ",
"            LAb  6/             ",
"                                ",
"                                ",
"                                ",
"                                ",
"                                "
};
