/* XPM */
static char *_be3cf54ce9a47d0f3d1736da182f253[] = {
/* columns rows colors chars-per-pixel */
"48 48 116 2 ",
"   c None",
".  c #656769",
"X  c #66686A",
"o  c #68696B",
"O  c #686A6C",
"+  c #696A6C",
"@  c #696B6D",
"#  c #6A6B6D",
"$  c #6A6B6E",
"%  c #6A6C6E",
"&  c #6B6C6E",
"*  c #6B6C6F",
"=  c #6B6D6F",
"-  c #6C6D6F",
";  c #6C6E6F",
":  c #6C6E70",
">  c #6D6E70",
",  c #6D6F70",
"<  c #6D6E71",
"1  c #6D6F71",
"2  c #6E6F71",
"3  c #6E6F72",
"4  c #6E7072",
"5  c #6F7072",
"6  c #6F7073",
"7  c #707173",
"8  c #707174",
"9  c #707274",
"0  c #717274",
"q  c #717275",
"w  c #717375",
"e  c #727476",
"r  c #727477",
"t  c #737477",
"y  c #737577",
"u  c #747678",
"i  c #757679",
"p  c #757779",
"a  c #75777A",
"s  c #76787A",
"d  c #77787B",
"f  c #797B7D",
"g  c #7A7C7E",
"h  c #7B7C7F",
"j  c #7B7D7F",
"k  c #87C436",
"l  c #87C437",
"z  c #88C438",
"x  c #88C439",
"c  c #89C439",
"v  c #89C53A",
"b  c #89C53B",
"n  c #8AC53A",
"m  c #8AC53B",
"M  c #8AC53C",
"N  c #8BC53C",
"B  c #8BC53D",
"V  c #8AC63C",
"C  c #8BC63D",
"Z  c #8BC63E",
"A  c #8CC63E",
"S  c #8CC63F",
"D  c #8DC640",
"F  c #8DC741",
"G  c #8EC742",
"H  c #8FC743",
"J  c #8FC843",
"K  c #90C845",
"L  c #90C846",
"P  c #91C846",
"I  c #91C847",
"U  c #91C948",
"Y  c #92C948",
"T  c #92C949",
"R  c #93C94B",
"E  c #94C94B",
"W  c #94CA4C",
"Q  c #95CA4E",
"!  c #96CB4E",
"~  c #97CB4E",
"^  c #96CA4F",
"/  c #97CB4F",
"(  c #98CC4F",
")  c #97CB50",
"_  c #98CC50",
"`  c #98CC52",
"'  c #99CC54",
"]  c #9ACC55",
"[  c #9ACC56",
"{  c #9BCD58",
"}  c #9DCD5A",
"|  c #9CCE5A",
" . c #9ECE5C",
".. c #9FCF5E",
"X. c #9FCF5F",
"o. c #A0CF60",
"O. c #A3D065",
"+. c #A4D167",
"@. c #7C7D80",
"#. c #7C7E80",
"$. c #7F8183",
"%. c #848688",
"&. c #858789",
"*. c #868789",
"=. c #86888A",
"-. c #87898B",
";. c #8B8D8F",
":. c #908F97",
">. c #918F97",
",. c #8F9092",
"<. c #919395",
"1. c #919098",
"2. c #929098",
"3. c #959799",
"4. c #97979E",
"5. c #98979F",
/* pixels */
"                                                                                                ",
"                                                                                                ",
"                                                                                                ",
"                                                                                                ",
"                                                                                                ",
"                                                                                                ",
"                                                                                                ",
"                                          { W D     5.j                                         ",
"                                    T S v v Z v )   :.. : 4 y                                   ",
"                                P m m S D S S Z _   2.+ : : : * e                               ",
"                            ) v Z S S S S S S v W   2.+ 4 : : 4 : * j                           ",
"                          D Z S S S S S Z v Z D     2.X : : 4 : : 4 + :                         ",
"                        P v S S S S v D W               f 4 - : 4 : 4 - :                       ",
"                      T v S S D v S '                       %.: - : : 4 - e                     ",
"                    o.k Z S S v P                               t * : 4 : * j                   ",
"                    k S S S v T                                   j * : 4 : +                   ",
"                  K Z Z S v T                                       s * : 4 : e                 ",
"                  z S D Z S                                           4 : : : + <.              ",
"                W S D Z v o.                                          <.+ : : : i               ",
"                S S D D D                                               e : 4 : -               ",
"                z S S v X.                                              &.+ 6 : + ;.            ",
"              X.v S S v                                                   - - 9 : #.            ",
"              W Z S S S Z Z S S D S S S S S S v                           : : : : t             ",
"              H S S S S S S S S S S S S S S S Z '                         e - 9 : e             ",
"              H S S S S S S S S D Z D D Z D Z v '                         9 : : : :             ",
"              P Z S S S S Z S D Z Z Z Z S Z Z Z '                         9 : 4 : e             ",
"              W m Z S Z S D D D D J H H D D K D                           : : : : i             ",
"              X.m S S m                                                   * : 4 : #.            ",
"                m Z S m X.                                              %.* 4 : + -.            ",
"                Z S S S D                                               9 : : 4 :               ",
"                W Z S S v +.                                          3.o 4 4 * i               ",
"                  z S Z Z Z                                           4 * 4 : + ;.              ",
"                  P Z Z Z v W                                       j + : 4 - e                 ",
"                    k D S S v _                                   t : : 4 : o                   ",
"                    | k Z D D v P                               i : : : : * #.                  ",
"                      T Z Z D Z N S |                       -.4 : 4 : 4 * e                     ",
"                        v v S S S S v S '               j : * - : : : : +                       ",
"                          T v S S S S S Z v S S     :.. : : 4 : 6 : * e                         ",
"                            ) v S S S S S S S v (   2.+ : 4 : 4 : * i                           ",
"                                H v Z S S S S Z _   2.+ 4 : : * 6                               ",
"                                    T Z v v S v (   :.X * : t                                   ",
"                                          ' W D     4.s &.                                      ",
"                                                                                                ",
"                                                                                                ",
"                                                                                                ",
"                                                                                                ",
"                                                                                                ",
"                                                                                                "
};
