/* XPM */
static char *_7b0a547c5694ffce646f17dedcab1a6[] = {
/* columns rows colors chars-per-pixel */
"16 16 53 1 ",
"  c None",
". c #636567",
"X c #646668",
"o c #66686A",
"O c #67696B",
"+ c #686A6C",
"@ c #6C6E70",
"# c #6C6C73",
"$ c #6D6C74",
"% c #717275",
"& c #717375",
"* c #72727A",
"= c #73727A",
"- c #757779",
"; c #77787B",
": c #77797B",
"> c #7B7C7E",
", c #7B7D7F",
"< c #83C230",
"1 c #86C335",
"2 c #86C336",
"3 c #87C436",
"4 c #89C53B",
"5 c #8AC53C",
"6 c #8AC63D",
"7 c #8CC63F",
"8 c #8DC740",
"9 c #8DC741",
"0 c #8EC741",
"q c #8EC742",
"w c #8EC743",
"e c #90C746",
"r c #92CC42",
"t c #92CC43",
"y c #90C846",
"u c #92C949",
"i c #93C94A",
"p c #93CA4B",
"a c #95CA4E",
"s c #96CB50",
"d c #98CB52",
"f c #9DCE5C",
"g c #9ECE5C",
"h c #9ECF5E",
"j c #9FCF5E",
"k c #9BD052",
"l c #9DD156",
"z c #B0D77C",
"x c #7D7F81",
"c c #7E8082",
"v c #818285",
"b c #96989A",
"n c #97989A",
/* pixels */
"                ",
"                ",
"      pr =      ",
"    a27l #+-    ",
"   j2j    cOc   ",
"   <z      b.   ",
"  d9        &:  ",
"  995459    >#  ",
"  99yeyp    >#  ",
"  s9        &:  ",
"   <z      bO   ",
"   f2j    vO>   ",
"    p38k $+&    ",
"      pr *      ",
"                ",
"                "
};
